<svg width="12.000000" height="12.000000" viewBox="0 0 12 12" fill="none" xmlns="http://www.w3.org/2000/svg" xmlns:xlink="http://www.w3.org/1999/xlink">
	<desc>
			Created with Pixso.
	</desc>
	<defs>
		<clipPath id="clip21_8644">
			<rect id="Icon" rx="0.000000" width="11.000000" height="11.000000" transform="translate(0.500000 0.500000)" fill="white" fill-opacity="0"/>
		</clipPath>
	</defs>
	<rect id="Icon" rx="0.000000" width="11.000000" height="11.000000" transform="translate(0.500000 0.500000)" fill="#FFFFFF" fill-opacity="0"/>
	<g clip-path="url(#clip21_8644)">
		<path id="Vector" d="M2.68 11.5C2.55 11.5 2.42 11.45 2.31 11.37C2.1 11.22 2 10.96 2.06 10.71L2.83 7.31L0.21 5.02C0.02 4.85 -0.05 4.58 0.03 4.34C0.11 4.1 0.32 3.93 0.57 3.9L4.04 3.59L5.41 0.38C5.51 0.15 5.74 0 6 0C6.25 0 6.48 0.15 6.58 0.38L7.95 3.59L11.41 3.9C11.67 3.93 11.88 4.1 11.96 4.34C12.04 4.58 11.97 4.85 11.78 5.02L9.16 7.31L9.93 10.71C9.99 10.96 9.89 11.22 9.68 11.37C9.48 11.52 9.2 11.53 8.98 11.4L6 9.62L3.01 11.4C2.91 11.46 2.79 11.5 2.68 11.5ZM6 8.85C6.11 8.85 6.22 8.88 6.32 8.94L9.14 10.63L8.41 7.42C8.36 7.19 8.44 6.95 8.61 6.79L11.09 4.63L7.82 4.33C7.58 4.31 7.38 4.16 7.29 3.94L6 0.92L4.7 3.94C4.61 4.16 4.41 4.31 4.17 4.33L0.9 4.63L3.37 6.79C3.55 6.95 3.63 7.19 3.58 7.42L2.85 10.63L5.67 8.94C5.77 8.88 5.88 8.85 6 8.85ZM4.01 3.65C4.01 3.65 4.01 3.65 4.01 3.65L4.01 3.65ZM7.98 3.65L7.98 3.65C7.98 3.65 7.98 3.65 7.98 3.65Z" fill="#94A3B8" fill-opacity="1.000000" fill-rule="nonzero"/>
	</g>
</svg>
