<svg width="12.000000" height="12.000000" viewBox="0 0 12 12" fill="none" xmlns="http://www.w3.org/2000/svg" xmlns:xlink="http://www.w3.org/1999/xlink">
	<desc>
			Created with Pixso.
	</desc>
	<defs>
		<clipPath id="clip21_5803">
			<rect id="left-arrow 1" rx="0.000000" width="11.000000" height="11.000000" transform="translate(0.500000 0.500000)" fill="white" fill-opacity="0"/>
		</clipPath>
	</defs>
	<rect id="left-arrow 1" rx="0.000000" width="11.000000" height="11.000000" transform="translate(0.500000 0.500000)" fill="#FFFFFF" fill-opacity="0"/>
	<g clip-path="url(#clip21_5803)">
		<path id="Vector" d="M11.53 5.53L1.6 5.53L3.24 3.89C3.43 3.71 3.43 3.41 3.25 3.23C3.06 3.04 2.77 3.04 2.58 3.23L0.13 5.66C0.13 5.66 0.13 5.66 0.13 5.66C-0.05 5.85 -0.05 6.14 0.13 6.33C0.13 6.33 0.13 6.33 0.13 6.33L2.58 8.76C2.77 8.95 3.06 8.95 3.25 8.76C3.43 8.58 3.43 8.28 3.24 8.1L1.6 6.46L11.53 6.46C11.79 6.46 12 6.25 12 6C12 5.74 11.79 5.53 11.53 5.53Z" fill="#0D9488" fill-opacity="1.000000" fill-rule="nonzero"/>
	</g>
</svg>
