<svg width="24.000000" height="15.000000" viewBox="0 0 24 15" fill="none" xmlns="http://www.w3.org/2000/svg" xmlns:xlink="http://www.w3.org/1999/xlink">
	<desc>
			Created with Pixso.
	</desc>
	<defs>
		<clipPath id="clip21_8647">
			<rect id="Icon" rx="0.000000" width="11.000000" height="11.000000" transform="translate(0.500000 2.500000)" fill="white" fill-opacity="0"/>
		</clipPath>
	</defs>
	<path id="2" d="M22.41 12L16.9 12L16.9 11.23L19.78 8.08C20.79 6.97 21.26 6.37 21.26 5.57C21.26 4.65 20.54 4.07 19.59 4.07C18.58 4.07 17.94 4.73 17.94 5.72L16.93 5.72C16.93 4.19 18.1 3.15 19.62 3.15C21.16 3.15 22.25 4.22 22.25 5.57C22.25 6.54 21.81 7.29 20.31 8.89L18.35 10.99L18.35 11.06L22.41 11.06L22.41 12Z" fill="#94A3B8" fill-opacity="1.000000" fill-rule="evenodd"/>
	<rect id="Icon" rx="0.000000" width="11.000000" height="11.000000" transform="translate(0.500000 2.500000)" fill="#FFFFFF" fill-opacity="0"/>
	<g clip-path="url(#clip21_8647)">
		<path id="Vector" d="M5.99 2.66C7.68 2.66 9.06 4.01 9.06 5.67C9.06 7.33 7.68 8.67 5.99 8.67C4.3 8.67 2.93 7.33 2.93 5.67C2.93 4.01 4.3 2.66 5.99 2.66ZM5.99 3.45C4.74 3.45 3.73 4.44 3.73 5.67C3.73 6.9 4.74 7.89 5.99 7.89C7.25 7.89 8.26 6.9 8.26 5.67C8.26 4.44 7.25 3.45 5.99 3.45ZM1.07 13.33C1 13.33 0.94 13.32 0.87 13.28C0.67 13.17 0.61 12.92 0.71 12.74C1.79 10.88 3.81 9.72 5.99 9.72C8.18 9.72 10.2 10.88 11.28 12.74C11.38 12.92 11.32 13.17 11.13 13.28C10.95 13.38 10.69 13.32 10.59 13.13C9.64 11.51 7.88 10.5 5.99 10.5C4.11 10.5 2.35 11.51 1.42 13.13C1.35 13.26 1.2 13.33 1.07 13.33Z" fill="#94A3B8" fill-opacity="1.000000" fill-rule="evenodd"/>
	</g>
</svg>
